<?xml version="1.0" encoding="UTF-8" standalone="no"?>
<svg
   width="117"
   height="22"
   viewBox="0 0 117 22"
   fill="none"
   version="1.1"
   id="svg8"
   sodipodi:docname="logo.svg"
   xml:space="preserve"
   inkscape:version="1.3.2 (091e20e, 2023-11-25, custom)"
   xmlns:inkscape="http://www.inkscape.org/namespaces/inkscape"
   xmlns:sodipodi="http://sodipodi.sourceforge.net/DTD/sodipodi-0.dtd"
   xmlns="http://www.w3.org/2000/svg"
   xmlns:svg="http://www.w3.org/2000/svg"><defs
     id="defs8" /><sodipodi:namedview
     id="namedview8"
     pagecolor="#ffffff"
     bordercolor="#666666"
     borderopacity="1.0"
     inkscape:showpageshadow="2"
     inkscape:pageopacity="0.0"
     inkscape:pagecheckerboard="0"
     inkscape:deskcolor="#d1d1d1"
     inkscape:zoom="7.2342463"
     inkscape:cx="40.847379"
     inkscape:cy="23.775801"
     inkscape:window-width="1920"
     inkscape:window-height="991"
     inkscape:window-x="-9"
     inkscape:window-y="-9"
     inkscape:window-maximized="1"
     inkscape:current-layer="svg8" /><text
     xml:space="preserve"
     style="font-size:23.1801px;line-height:1.25;font-family:Marcellus;-inkscape-font-specification:Marcellus;letter-spacing:0px;word-spacing:0px;fill:#374836;fill-opacity:1;stroke-width:0.671317"
     x="23.079691"
     y="19.74637"
     id="text8"><tspan
       sodipodi:role="line"
       id="tspan8"
       x="23.079691"
       y="19.74637"
       style="font-style:normal;font-variant:normal;font-weight:300;font-stretch:normal;font-size:23.1801px;font-family:'Segoe UI';-inkscape-font-specification:'Segoe UI Light';fill:#374836;fill-opacity:1;stroke-width:0.671317">Vees Jean</tspan></text><g
     id="g5"
     transform="matrix(0.03179027,0,0,0.03179027,1.0467,3.5333947)"
     style="fill:#374836;fill-opacity:1"><g
       id="g3"
       style="fill:#374836;fill-opacity:1"><g
         id="g1"
         style="fill:#374836;fill-opacity:1"><path
           d="m 252.1,105.421 c -5.099,-30 -29.399,-60 -67.2,-81.899 C 121.3,-11.278 71.499,0.122 47.199,10.021 18.401,22.322 7,39.122 5.501,40.922 L 0,48.121 l 4.6,7.8 c 0.601,0.601 9,17.401 26.7,36.899 51.299,57.301 102.9,80.099 181.199,80.4 -1.199,-2.399 -2.401,-4.799 -3.9,-6.899 -21,-33.9 -55.499,-61.8 -97.2,-78.6 l 11.4,-27.9 c 47.401,19.2 87.001,51.299 111,90.3 1.8,2.999 3.6,5.999 5.4,9 11.702,-16.799 15.9,-35.099 12.901,-53.7 z"
           fill="#edffed"
           fill-opacity="1"
           data-original-color="#000000ff"
           stroke="none"
           stroke-opacity="1"
           id="path1"
           style="fill:#374836;fill-opacity:1" /></g><g
         id="g2"
         style="fill:#374836;fill-opacity:1"><path
           d="M 507.499,40.922 C 474.001,0.717 403.53,-18.325 326.799,23.822 289.3,45.421 265,75.421 259.9,105.421 c -2.999,18.602 1.199,36.901 12.9,53.701 1.8,-3.001 3.6,-6 5.4,-9 24,-39.001 63.6,-71.1 111,-90.3 l 11.4,27.9 c -41.7,16.8 -76.199,44.7 -96.899,78.3 -1.501,2.401 -3.001,4.801 -4.2,7.2 78.3,-0.3 129.901,-23.099 181.199,-80.4 17.701,-19.499 27.1,-36.299 27.7,-36.899 l 3.6,-7.8 z"
           fill="#edffed"
           fill-opacity="1"
           data-original-color="#000000ff"
           stroke="none"
           stroke-opacity="1"
           id="path2"
           style="fill:#374836;fill-opacity:1" /></g></g><g
       id="Agriculture"
       style="fill:#374836;fill-opacity:1"><g
         id="g4"
         style="fill:#374836;fill-opacity:1"><path
           d="M 512,512 H 0 V 496 C 0,424.033 72.949,372.873 140.233,397.035 164.418,356.503 208.407,331 256,331 c 47.593,0 91.582,25.503 115.767,66.035 C 439.024,372.882 512,424.009 512,496 Z"
           fill="#edffed"
           fill-opacity="1"
           data-original-color="#000000ff"
           stroke="none"
           stroke-opacity="1"
           id="path3"
           style="fill:#374836;fill-opacity:1" /></g></g><path
       d="m 299.5,173.221 c -18.3,31.5 -27.599,70.201 -28.5,115.201 v 12.299 c -5.099,-0.599 -9.901,-0.899 -15,-0.899 -5.099,0 -9.901,0.3 -15,0.899 v -12.299 c -0.901,-45.3 -10.201,-84 -28.5,-115.201 0,0 24.901,-11.1 26.7,-14.099 6.599,11.7 12.299,24 16.8,37.2 4.501,-13.2 10.201,-25.8 16.8,-37.2 1.8,2.999 26.7,14.099 26.7,14.099 z"
       fill="#edffed"
       fill-opacity="1"
       data-original-color="#000000ff"
       stroke="none"
       stroke-opacity="1"
       id="path4"
       style="fill:#374836;fill-opacity:1" /></g></svg>
